<svg enable-background="new 0 0 55.867 55.867" viewBox="0 0 55.867 55.867" xmlns="http://www.w3.org/2000/svg"><path d="m11.287 54.548c-.207 0-.414-.064-.588-.191-.308-.224-.462-.603-.397-.978l3.091-18.018-13.091-12.759c-.272-.266-.37-.663-.253-1.024.118-.362.431-.626.808-.681l18.09-2.629 8.091-16.393c.168-.342.516-.558.896-.558.381 0 .729.216.896.558l8.09 16.393 18.091 2.629c.377.055.689.318.808.681.117.361.02.759-.253 1.024l-13.091 12.761 3.09 18.017c.064.375-.09.754-.397.978-.308.226-.717.255-1.054.076l-16.18-8.506-16.182 8.506c-.146.076-.306.114-.465.114zm-8.138-31.964 12.016 11.713c.235.229.343.561.287.885l-2.837 16.538 14.854-7.808c.291-.154.638-.154.931 0l14.852 7.808-2.836-16.538c-.056-.324.052-.655.287-.885l12.016-11.713-16.605-2.413c-.326-.047-.607-.252-.753-.547l-7.427-15.046-7.427 15.047c-.146.295-.427.5-.753.547z"/></svg>